<svg xmlns="http://www.w3.org/2000/svg" x="0px" y="0px" viewBox="0 0 734.25 742.37" xml:space="preserve">
<g fill="#1976d2">
<path d="M713.89,235.24L486.93,18.2C469.98,2,445.67-3.94,423.16,2.63l-301.42,88c-22.51,6.57-39.81,24.66-45.38,47.44
	L1.88,443.12c-5.56,22.78,1.45,46.81,18.4,63.02L247.2,723.16c16.95,16.21,41.26,22.14,63.77,15.57l301.45-87.99
	c22.52-6.57,39.81-24.66,45.38-47.44l74.49-305.05C737.86,275.47,730.84,251.45,713.89,235.24z M664.05,257.6l-95.52,27.72
	l-59.15-175.64L664.05,257.6z M120.65,169.92l72.03,68.69L69.83,378.03L120.65,169.92z M522.35,624.38l-205.88,60.09l23.7-97.07
	l38.09,7.73c-21.7-33.54-44.88-77.57-68.76-130.6l-23.38,87.88c-2.01,7.57-6.84,13.85-13.22,17.8l18.13,5.19l-23.7,97.07
	l-92.87-88.82c-14.12-0.23-26.42-10.4-29-24.63l-0.68-3.76l-32.42-31.01l32.18,9.21c0.98-2.98,2.44-5.83,4.34-8.41
	c4.91-6.65,12.34-10.99,20.54-11.98l3.04-0.37c2.02-6.37,4.27-13.75,6.71-21.92l-112.8-32.32L216.32,288.3l9.82,33.64
	c6.93-26.06,13.41-50.58,18.43-71.34c5.07-20.95,7.11-31.89,7.93-37.5c-0.46-0.48-0.95-0.98-1.45-1.48
	c-2.89,0.89-5.87,1.34-8.86,1.34c-4.05,0-8.1-0.82-11.89-2.46c-7.36-3.17-13.14-9.16-16.06-16.62l-2.86-7.31l-55.73-53.12l205.49-60
	l-41.93,40.41c5.2,1.07,10.12,3.5,14.2,7.22c7.22,6.59,16.09,16.38,24.1,26.08l83.88-80.85l30.53,90.64
	c1.46-0.22,2.92-0.32,4.37-0.32c11.9,0,23.07,7.13,27.78,18.68c25.82,63.31,32.67,102.95,23.66,136.81
	c-6.25,23.47-21.09,42.68-45.38,58.72c-9.6,6.34-21.15,12.51-35.04,18.69l-26.64,27.85c7.56,17.18,15.4,33.55,23.32,48.79
	l94.83-99.16l54.67,220.18l-63.15-12.8c-0.45,10.58-6.5,20.59-16.64,25.63l-32.3,16.03L522.35,624.38z M627.49,514.21l-44.75-180.35
	l95.57-27.76L627.49,514.21z"/>
<path d="M495.69,563.46l-17.41,8.66c-34.86-37.07-73.98-110.33-103.56-187.7c85.83-27.32,115.77-48.97,124.02-80.01
	c6.91-25.96,1.32-59.48-22.45-117.77c-84.25,25.93-120.43,48.33-143.55,78.44l-1.13-0.3l5.86-22.01c6.01-22.57,11-43.61,12.87-55.19
	c-6.36-10.15-25-33.24-37.15-44.33l-74.96,29.61l3.95,10.12l13.54-5.46c6.06,2.22,24.09,18.5,26.8,26.47
	c3.54,9.4-12.68,70.35-29.35,133c-19.97,75.06-47.23,172.96-58.31,203.25l-21.85,2.64l1.96,10.8l82.16-8.96l57.97-217.85
	c12.91-48.54,62.82-88.44,108.85-107.01c16.64,32.83,23.77,67.36,18.67,86.55c-12.46,46.84-63.72,73.69-135.58,75.72
	c43.7,108.32,85.16,186.43,118.81,228.02l74.5-36.98L495.69,563.46z"/>
	</g>
</svg>
